<?xml version="1.0" encoding="UTF-8"?>
<svg xmlns="http://www.w3.org/2000/svg" xmlns:xlink="http://www.w3.org/1999/xlink" width="160px" height="133px" viewBox="0 0 159 133" version="1.1">
<g id="surface1">
<path style=" stroke:none;fill-rule:nonzero;fill:rgb(2.352941%,18.431373%,29.803922%);fill-opacity:1;" d="M 24.863281 103.660156 C 43.070312 85.386719 78.746094 49.503906 97.320312 30.855469 C 97.515625 30.65625 97.660156 30.417969 97.855469 30.226562 C 98.511719 29.621094 99.390625 28.796875 100.027344 28.214844 C 101.429688 26.980469 103.328125 27.433594 103.960938 28.199219 C 106.386719 30.628906 107.234375 31.457031 109.074219 33.328125 C 109.617188 33.816406 110.398438 35.367188 109.546875 36.925781 C 109.105469 37.710938 107.726562 38.945312 107.726562 38.945312 C 107.726562 38.945312 52.066406 94.980469 33.691406 113.417969 C 32.601562 114.589844 30.597656 114.671875 29.425781 113.578125 C 27.71875 111.871094 26.019531 110.15625 24.3125 108.441406 C 23.4375 107.554688 23.257812 106.101562 23.785156 104.984375 "/>
<path style=" stroke:none;fill-rule:nonzero;fill:rgb(29.803922%,56.078431%,80%);fill-opacity:1;" d="M 87.085938 25.21875 C 88.929688 24.632812 90.84375 24.246094 92.773438 24.082031 C 93.773438 26.6875 95.242188 29.082031 96.878906 31.328125 C 99.519531 34.867188 102.734375 37.957031 106.328125 40.503906 C 110.472656 43.453125 115.101562 45.683594 119.921875 47.25 C 124.332031 48.695312 128.914062 49.59375 133.523438 50.085938 C 133.519531 50.5625 133.746094 51.035156 133.726562 51.511719 C 133.398438 59.175781 130.582031 66.71875 125.449219 72.363281 C 122.914062 75.179688 119.558594 77.777344 116.292969 79.6875 C 110.769531 83.546875 102.441406 84.304688 101.148438 84.273438 C 100.707031 84.265625 100.265625 83.945312 99.816406 83.953125 C 99.242188 78.570312 98.125 73.230469 96.25 68.144531 C 94.753906 64.074219 92.765625 60.175781 90.265625 56.625 C 87.726562 53.03125 84.664062 49.800781 81.144531 47.160156 C 78.910156 45.5 76.515625 44.027344 73.914062 43.023438 C 74.117188 40.4375 74.734375 37.882812 75.695312 35.472656 C 76.710938 32.980469 78.1875 30.628906 80.242188 28.878906 C 82.222656 27.175781 84.609375 26 87.085938 25.21875 "/>
<path style=" stroke:none;fill-rule:nonzero;fill:rgb(3.137255%,11.372549%,17.647059%);fill-opacity:1;" d="M 96.828125 31.253906 C 97.246094 30.925781 97.566406 30.503906 97.949219 30.140625 C 98.265625 30.8125 98.964844 31.328125 99.421875 31.898438 C 100.246094 32.890625 101.257812 33.691406 102.167969 34.597656 C 103.953125 36.191406 105.734375 37.613281 107.710938 38.960938 C 107.214844 39.457031 106.734375 39.949219 106.242188 40.441406 C 102.640625 37.894531 99.519531 34.867188 96.878906 31.328125 "/>
<path style=" stroke:none;fill-rule:nonzero;fill:rgb(3.137255%,11.372549%,17.647059%);fill-opacity:1;" d="M 81.113281 47.136719 C 84.632812 49.777344 87.691406 52.96875 90.222656 56.566406 C 89.742188 57.054688 89.234375 57.550781 88.75 58.046875 C 87.628906 56.535156 86.574219 55.007812 85.347656 53.582031 C 83.707031 51.664062 81.988281 49.8125 80.03125 48.222656 C 80.394531 47.863281 80.75 47.5 81.113281 47.136719 "/>
<path style=" stroke:none;fill-rule:nonzero;fill:rgb(43.529412%,76.862745%,93.333333%);fill-opacity:1;" d="M 133.523438 50.085938 C 134.65625 50.210938 135.796875 50.289062 136.929688 50.386719 C 137.402344 54.5625 136.871094 58.820312 135.648438 62.828125 C 133.6875 69.277344 129.6875 75.003906 124.582031 79.351562 C 119.207031 83.980469 112.375 86.925781 105.296875 87.441406 C 103.5625 87.574219 101.8125 87.574219 100.085938 87.347656 C 100.039062 86.214844 99.921875 85.082031 99.816406 83.953125 C 105.460938 83.855469 111.0625 82.253906 115.933594 79.394531 C 119.195312 77.484375 122.136719 75.023438 124.667969 72.210938 C 130.113281 66.214844 133.46875 58.234375 133.523438 50.085938 "/>
<path style=" stroke:none;fill-rule:nonzero;fill:rgb(6.27451%,33.72549%,46.666667%);fill-opacity:1;" d="M 77.558594 53.316406 C 78.160156 53.171875 78.699219 53.550781 79.058594 53.992188 C 79.605469 54.519531 79.527344 55.488281 78.960938 55.964844 C 63.394531 71.59375 47.828125 87.21875 32.261719 102.847656 C 31.84375 103.308594 31.0625 103.453125 30.539062 103.085938 C 30.078125 102.710938 29.554688 102.238281 29.617188 101.578125 C 29.617188 101.035156 30.039062 100.675781 30.394531 100.339844 C 45.890625 84.773438 61.40625 69.214844 76.902344 53.648438 C 77.078125 53.464844 77.316406 53.359375 77.558594 53.316406 "/>
</g>
</svg>
