<?xml version="1.0" encoding="UTF-8"?><svg version="1.1" viewBox="0 0 4000 3333.3" xml:space="preserve" xmlns="http://www.w3.org/2000/svg"><g transform="matrix(1.3333 0 0 -1.3333 0 3333.3)"><g><g transform="translate(1486.2 2242.6)"><path d="m0 0c16.533 10.846 33.211 21.453 50.104 31.699 78.972-48.281 153.98-102.7 227.27-159.14 148.61-115.42 287.88-243.01 414.39-382.33 111.39-122.86 212.75-255.15 298.9-396.97 52.744-87.322 100.54-177.88 139.51-272.21-11.638-3.551-23.486-7.421-34.74-12.052 0 0-327.28 319.26-351.19 344.07-19.029 19.485-322.4 337.26-361.46 347.44-104.31 99.153-215.49 191.2-332.66 274.78-117.94-83.94-229.48-176.78-334.48-276.39-26.684-0.024-53.368 0.024-80.076-0.024 0.024-26.564 0.048-53.104 0-79.668-72.229-73.021-139.49-150.94-202.38-232.09-63.758-82.619-121.97-169.51-173.54-260.26 131.93-69.061 257.86-149.52 375.93-240.28 0.096-26.444 496.56-588.49 521.75-613.68-37.914-51.208-73.741-103.95-107.19-158.18-167.83 273.32-397.24 507.3-662.37 687.16-81.875 55.335-167.23 105.58-255.68 149.64-52.815 26.276-106.83 50.248-162.24 70.381 99.393 233.63 242.8 446.72 410.29 636.79 93.562 106.09 194.63 205.43 301.47 298.13 101.07 87.395 206.97 169.41 318.41 243.2"
                              fill="#062f4c"/></g><g transform="translate(1201.8 1741.5)"><path d="m0 0c105.01 99.609 216.54 192.45 334.48 276.39 117.17-83.58 228.35-175.63 332.66-274.78-34.987 8.83-71.51 9.718-107.26 6.431-41.202-4.296-82.907-19.077-112.54-48.953-33.019-32.155-49.456-77.604-55.311-122.5-28.124 27.908-56.104 55.983-84.035 84.083-2.976 2.976-6.839 4.823-10.391 6.911-19.029 26.348-45.953 46.673-76.62 57.495-33.427 12.454-69.469 14.806-104.82 14.926z"
                              fill="#4c8fcc"/></g><g transform="translate(919.33 1429.7)"><path d="m0 0c62.894 81.156 130.16 159.07 202.38 232.09 0.048-244.21 0.024-488.42 0-732.63-118.06 90.754-244 171.21-375.93 240.28 51.568 90.754 109.78 177.64 173.54 260.26"
                              fill="#4c8fcc"/></g><g transform="translate(1649.1 1700.6)"><path d="m0 0c29.635 29.875 71.341 44.657 112.54 48.952 35.754 3.288 72.277 2.4 107.26-6.431 39.066-10.174 75.037-33.474 97.377-67.501 11.879-17.661 20.181-37.411 26.42-57.687 10.871-38.802 11.95-79.356 11.446-119.36-44.345-0.072-88.69 0.048-133.04-0.072-1.032 30.907 3.263 63.686-10.175 92.626-9.526 20.325-32.107 31.243-53.751 32.131-21.453 1.44-45.065-4.32-59.175-21.597-12.79-15.861-15.382-37.002-16.558-56.655-1.295-29.132 3.696-59.031 17.518-84.923 16.821-30.619 39.378-57.783 64.526-81.9 31.387-32.634 67.501-60.374 97.857-94.041 27.332-28.988 51.256-61.479 68.005-97.785 20.541-41.13 26.972-87.827 25.82-133.37-0.912-32.107-5.231-64.406-16.149-94.737-11.59-31.699-31.123-61.047-58.335-81.371-25.124-19.125-55.696-29.852-86.651-34.771-49.552-6.743-101.89-4.847-148.46 14.854-35.227 14.829-64.238 42.689-81.708 76.548-20.996 40.242-27.115 86.339-27.259 131.21 0.048 17.829 0 35.658 0.048 53.463 44.345 0.048 88.69-0.023 133.06 0.048 1.728-35.538-4.055-72.06 5.663-106.81 5.783-22.173 26.204-37.794 48.185-41.754 20.733-3.431 43.577-2.015 61.622 9.791 15.502 9.43 23.949 26.78 26.78 44.225 5.903 35.922 1.872 74.293-15.381 106.69-16.918 30.595-39.474 57.711-64.55 81.899-33.187 34.099-71.173 63.254-102.58 99.081-26.756 28.867-49.408 61.646-65.486 97.641-24.572 52.48-26.731 112.42-20.18 169.1 5.855 44.897 22.292 90.346 55.311 122.5"
                              fill="#fff"/></g><g transform="translate(1262.7 1613.1)"><path d="m0 0v-301.13c23.204 0.024 46.409-0.048 69.613 0.024 18.525 0.288 38.202 6.575 50.153 21.429 12.43 17.277 13.917 39.522 14.613 60.111 0.024 43.985-0.048 87.994 0.024 131.98-0.48 23.637-0.983 50.369-17.277 69.23-12.262 12.646-30.259 18.117-47.537 18.357-23.204 0.048-46.385 0.024-69.589 0m-141 128.38c26.708 0.048 53.392 0 80.075 0.024h116.17c35.346-0.12 71.389-2.471 104.82-14.925 30.668-10.823 57.592-31.148 76.621-57.496 26.852-39.09 36.69-87.202 38.058-133.95 0.024-48.833 0.096-97.689-0.024-146.52-1.728-47.993-11.974-97.953-41.514-136.97-22.748-30.644-57.495-50.801-94.281-59.583-45.377-11.878-92.578-6.791-138.89-7.847-0.072-111.8 0-223.57-0.024-335.37-13.942 0-27.86 0.024-41.778-0.024-32.802 0.072-65.605 0-98.384 0.048l-0.744 0.984c-0.216 26.444 0 52.888-0.096 79.332 0.024 244.21 0.048 488.42 0 732.63 0.048 26.563 0.024 53.103 0 79.667"
                              fill="#fff"/></g><g transform="translate(1966.3 1675.6)"><path d="m0 0c7.031-0.552 11.206-6.839 15.885-11.326 25.029-26.9 52.768-51.208 76.693-79.164 27.667-27.5 54.903-55.456 82.571-82.979 13.246-13.942 27.764-26.66 39.93-41.658 18.813-19.653 38.49-38.514 57.519-57.999 23.9-24.812 49.337-48.185 71.965-74.197 36.427-36.378 72.589-73.02 108.94-109.47 18.358-21.524 39.234-40.722 58.959-60.974 22.605-22.941 45.473-45.665 68.03-68.678 10.774-13.294 23.78-24.524 34.914-37.506-103.9-41.97-203.49-94.114-298.92-152.76-246.99-152.28-466.22-350.3-639.33-583.4-25.197 25.196-50.297 50.488-75.325 75.852-13.51 12.886-24.908 27.788-38.634 40.458-30.667 31.627-63.014 61.695-92.17 94.738-29.347 29.107-58.359 58.623-87.514 87.922-18.717 21.933-40.05 41.37-59.967 62.151-18.909 19.461-39.042 37.77-56.607 58.503-14.998 15.477-30.452 30.499-45.569 45.88-21.717 22.629-45.017 43.722-65.126 67.862 32.779-0.048 65.582 0.024 98.384-0.048 114.39-98.097 220.41-205.98 315.38-322.99 92.914 114.32 196.24 220.02 307.75 316.27 30.955 4.919 61.526 15.646 86.65 34.771 27.212 20.325 46.745 49.672 58.335 81.371 107.31 77.988 219.33 149.93 337.51 210.38-35.299 64.67-75.829 126.44-118.25 186.64-65.75 92.314-137.76 180.24-215.58 262.66-6.239 20.277-14.542 40.026-26.42 57.687"
                              fill="#042338"/></g><g transform="translate(1499.4 1669.1)"><path d="m0 0c3.551-2.088 7.415-3.935 10.39-6.911 27.932-28.1 55.912-56.175 84.036-84.083-6.551-56.679-4.392-116.62 20.18-169.1 16.078-35.994 38.73-68.774 65.486-97.641 31.412-35.826 69.398-64.982 102.58-99.081 25.076-24.188 47.632-51.304 64.55-81.899 17.253-32.395 21.284-70.765 15.381-106.69-2.831-17.445-11.278-34.794-26.78-44.225-18.045-11.806-40.889-13.222-61.622-9.79-21.981 3.959-42.402 19.58-48.185 41.753-9.718 34.747-3.935 71.269-5.663 106.81-44.369-0.072-88.714 0-133.06-0.048-0.048-17.806 0-35.635-0.048-53.464 0.144-44.873 6.263-90.97 27.259-131.21 17.47-33.859 46.481-61.718 81.708-76.548 46.577-19.701 98.913-21.597 148.46-14.854-111.51-96.249-214.84-201.95-307.75-316.27-94.977 117.01-200.99 224.89-315.38 322.99 13.918 0.048 27.836 0.024 41.777 0.024 0.024 111.8-0.048 223.57 0.024 335.37 46.313 1.056 93.514-4.031 138.89 7.847 36.786 8.783 71.533 28.94 94.282 59.583 29.539 39.018 39.785 88.978 41.513 136.97 0.12 48.833 0.048 97.689 0.024 146.52-1.368 46.744-11.206 94.857-38.058 133.95"
                              fill="#1c72ba"/></g><g transform="translate(1748 1601.7)"><path d="m0 0c14.11 17.277 37.722 23.036 59.175 21.597 21.645-0.888 44.225-11.806 53.752-32.131 13.438-28.94 9.142-61.719 10.174-92.626 44.345 0.12 88.691 0 133.04 0.072 0.504 40.002-0.576 80.556-11.447 119.36 77.82-82.428 149.83-170.35 215.58-262.66 42.426-60.207 82.956-121.97 118.25-186.64-118.18-60.447-230.2-132.39-337.51-210.38 10.918 30.331 15.238 62.63 16.149 94.737 1.152 45.545-5.279 92.242-25.82 133.37-16.749 36.306-40.673 68.797-68.005 97.785-30.355 33.667-66.47 61.406-97.857 94.041-25.148 24.117-47.705 51.28-64.526 81.9-13.822 25.892-18.813 55.791-17.517 84.923 1.175 19.653 3.767 40.793 16.557 56.655"
                              fill="#1c72ba"/></g><g transform="translate(1262.7 1613.1)"><path d="m0 0c23.204 0.024 46.385 0.048 69.589 0 17.278-0.24 35.275-5.711 47.537-18.357 16.294-18.861 16.797-45.593 17.277-69.23-0.072-43.985 0-87.994-0.024-131.98-0.696-20.589-2.183-42.834-14.613-60.111-11.951-14.854-31.628-21.141-50.153-21.429-23.204-0.072-46.409 0-69.613-0.024z"
                              fill="#1c72ba"/></g></g></g></svg>